<?xml version="1.0" encoding="UTF-8" standalone="no"?>
<!-- Created with Inkscape (http://www.inkscape.org/) -->

<svg
   xmlns:dc="http://purl.org/dc/elements/1.1/"
   xmlns:cc="http://creativecommons.org/ns#"
   xmlns:rdf="http://www.w3.org/1999/02/22-rdf-syntax-ns#"
   xmlns:svg="http://www.w3.org/2000/svg"
   xmlns="http://www.w3.org/2000/svg"
   xmlns:sodipodi="http://sodipodi.sourceforge.net/DTD/sodipodi-0.dtd"
   xmlns:inkscape="http://www.inkscape.org/namespaces/inkscape"
   version="1.1"
   id="svg3713"
   width="819.20001"
   height="1006.9333"
   viewBox="0 0 819.20001 1006.9333"
   sodipodi:docname="emu-black-silhouette.svg"
   inkscape:version="0.92.3 (2405546, 2018-03-11)">
  <metadata
     id="metadata3719">
    <rdf:RDF>
      <cc:Work
         rdf:about="">
        <dc:format>image/svg+xml</dc:format>
        <dc:type
           rdf:resource="http://purl.org/dc/dcmitype/StillImage" />
        <dc:title></dc:title>
      </cc:Work>
    </rdf:RDF>
  </metadata>
  <defs
     id="defs3717" />
  <sodipodi:namedview
     pagecolor="#ffffff"
     bordercolor="#666666"
     borderopacity="1"
     objecttolerance="10"
     gridtolerance="10"
     guidetolerance="10"
     inkscape:pageopacity="0"
     inkscape:pageshadow="2"
     inkscape:window-width="1920"
     inkscape:window-height="1027"
     id="namedview3715"
     showgrid="false"
     inkscape:zoom="0.8520922"
     inkscape:cx="409.60001"
     inkscape:cy="503.46664"
     inkscape:window-x="-8"
     inkscape:window-y="22"
     inkscape:window-maximized="1"
     inkscape:current-layer="svg3713" />
  <path
     inkscape:connector-curvature="0"
     id="path3725"
     d="m 264.67233,980.21409 c -0.65232,-2.21267 -1.76766,-3.47088 -3.26622,-3.6846 -1.25159,-0.17851 -4.25381,-2.01782 -6.6716,-4.08735 -2.41778,-2.06953 -6.13714,-4.24355 -8.26525,-4.83115 -5.68343,-1.56927 -13.70175,-9.63692 -17.73015,-17.83923 -1.90154,-3.87179 -4.98621,-8.38458 -6.85482,-10.02841 -2.01275,-1.77063 -4.13426,-5.20708 -5.20524,-8.43147 -2.11028,-6.3535 -2.30892,-20.02482 -0.40764,-28.05784 1.75292,-7.40619 2.73857,-59.48149 1.97719,-104.46183 -0.68824,-40.65883 -3.63825,-75.60861 -7.04355,-83.447 -1.27248,-2.92905 -1.90822,-8.25731 -2.23804,-18.75783 l -0.46068,-14.66666 h -4.00004 c -2.20002,0 -6.58554,-0.54614 -9.74562,-1.21363 -3.16007,-0.6675 -6.94559,-1.28541 -8.41225,-1.37312 -2.76285,-0.16525 -12.40238,-2.90541 -19.59981,-5.57151 -2.27323,-0.84206 -4.36592,-1.29823 -4.65042,-1.01373 -0.28452,0.28451 -2.2575,-0.4154 -4.3844,-1.55536 -2.12691,-1.13996 -4.41545,-2.07265 -5.08564,-2.07265 -0.67019,0 -1.81607,-0.72 -2.5464,-1.6 -0.73034,-0.88 -2.41034,-1.6 -3.73333,-1.6 -1.323,0 -3.003,-0.72 -3.73334,-1.6 -0.73033,-0.88 -2.17033,-1.6 -3.2,-1.6 -1.02966,0 -2.4743,-0.72559 -3.2103,-1.61242 -0.73601,-0.88684 -3.31479,-2.55513 -5.73062,-3.70735 -4.08141,-1.9466 -13.04502,-7.85796 -16.59557,-10.94453 -0.84507,-0.73463 -3.96507,-3.27014 -6.93334,-5.63447 -6.0009,-4.77994 -16.898903,-15.86024 -21.925263,-22.29204 -1.80128,-2.30493 -4.21928,-4.85216 -5.37332,-5.66048 -1.15404,-0.80833 -2.09826,-2.12563 -2.09826,-2.92736 0,-0.80171 -1.12805,-2.8145 -2.50679,-4.47284 -1.37873,-1.65834 -3.82647,-5.41518 -5.4394,-8.34851 -1.61294,-2.93333 -3.60489,-6.09112 -4.42655,-7.01732 -0.82166,-0.9262 -1.49393,-2.45787 -1.49393,-3.40371 0,-0.94586 -0.42096,-1.9799 -0.93547,-2.29788 -0.51451,-0.318 -1.48142,-2.74632 -2.14869,-5.39629 -0.66727,-2.64997 -1.63032,-4.81813 -2.14012,-4.81813 -0.5098,0 -1.19108,-0.84 -1.51396,-1.86667 -0.32288,-1.02667 -1.4008,-4.02667 -2.39538,-6.66667 -1.9442,-5.16067 -4.99682,-18.68067 -7.38415,-32.70427 -0.81498,-4.78735 -1.96283,-10.54735 -2.55079,-12.8 -0.58795,-2.25265 -1.04537,-5.29572 -1.01647,-6.76239 0.0289,-1.46667 -0.0169,-6.98667 -0.10181,-12.26667 -0.0849,-5.28 0.0793,-11.76 0.36477,-14.4 0.95272,-8.80929 2.68056,-19.6819 3.89875,-24.53333 0.66291,-2.64 1.69109,-6.72 2.28485,-9.06666 0.59376,-2.34667 2.58532,-7.86667 4.42569,-12.26667 1.84036,-4.4 3.3617,-8.48 3.38073,-9.06667 0.0306,-0.94159 11.25231,-22.1476 14.66728,-27.7171 0.71396,-1.1644 2.13811,-2.75162 3.16478,-3.52715 1.02666,-0.77552 1.86666,-1.94089 1.86666,-2.5897 0,-1.37176 11.69323,-15.87529 16.58102,-20.56605 1.83394,-1.76 6.375983,-5.84 10.093453,-9.06666 3.71746,-3.22667 7.75649,-6.84086 8.97561,-8.03152 1.21913,-1.19067 3.59665,-2.76774 5.28337,-3.5046 1.68673,-0.73685 5.04673,-2.93327 7.46666,-4.88092 2.41995,-1.94764 5.9742,-4.0706 7.89835,-4.71766 1.92414,-0.64707 4.22559,-1.90363 5.11432,-2.79235 0.88872,-0.88873 3.63442,-2.19152 6.10154,-2.8951 2.46713,-0.70358 5.24348,-1.91642 6.16968,-2.69521 0.92619,-0.77879 2.42742,-1.41597 3.33606,-1.41597 0.90863,0 2.24961,-0.72 2.97995,-1.6 0.73033,-0.88 2.47562,-1.6 3.87841,-1.6 1.40279,0 3.38402,-0.42108 4.40273,-0.93573 3.09132,-1.56174 9.05143,-3.21028 14.11886,-3.90521 2.64,-0.36205 5.76,-1.05644 6.93333,-1.54309 3.26791,-1.3554 10.84576,-3.1415 20.26667,-4.77686 4.69333,-0.81471 13.81333,-2.49723 20.26666,-3.73893 19.25773,-3.70542 33.49958,-6.40702 44.80001,-8.4983 5.86666,-1.08569 12.82666,-2.51702 15.46666,-3.18072 2.64,-0.6637 8.88,-1.92189 13.86667,-2.79596 4.98667,-0.87408 13.86667,-2.51235 19.73333,-3.64062 5.86667,-1.12826 15.70667,-3.01138 21.86667,-4.18471 13.75309,-2.61964 31.18331,-5.94628 45.33332,-8.6521 5.86667,-1.12184 15.70667,-3.04834 21.86667,-4.28111 6.16,-1.23276 16,-3.1582 21.86667,-4.27876 5.86666,-1.12055 15.70666,-3.00107 21.86666,-4.17891 6.16,-1.17785 16,-3.03226 21.86667,-4.12091 5.86667,-1.08865 11.38667,-2.27171 12.26667,-2.62904 0.88,-0.35732 10.72,-1.97551 21.86666,-3.59596 21.55372,-3.1334 49.09669,-3.88495 55.34297,-1.51011 1.63316,0.62093 3.30551,0.92123 3.71632,0.66734 0.41081,-0.25389 5.29052,0.50276 10.84382,1.68146 14.40911,3.05835 14.5967,3.04718 17.19517,-1.02386 l 2.24807,-3.52208 -2.80649,0.70438 c -4.16351,1.04498 -3.67173,-2.19231 1.00277,-6.60093 4.20478,-3.96562 4.05656,-4.40541 -0.66225,-1.96522 -2.95099,1.52601 -3.14703,1.50131 -3.14703,-0.39647 0,-1.11313 2.3903,-5.68546 5.3118,-10.16073 5.47884,-8.39275 5.81088,-9.89268 1.26996,-5.73686 l -2.6224,2.4 0.69584,-3.64426 c 0.92291,-4.83351 5.04356,-10.06392 11.6911,-14.8397 3.76257,-2.70313 4.88845,-4.00852 3.66117,-4.24487 -1.46524,-0.28218 -1.13885,-1.22303 1.88392,-5.43051 2.01092,-2.79905 5.09644,-8.16827 6.85671,-11.93159 l 3.20048,-6.8424 -3.11426,-9.68003 c -5.11584,-15.90156 -7.59014,-29.65044 -8.23996,-45.78663 -0.95975,-23.83227 2.63246,-42.913453 11.45364,-60.839826 2.34487,-4.765235 4.21867,-10.145941 4.21867,-12.114121 0,-2.709291 0.37579,-3.396756 1.6,-2.926986 1.2031,0.461676 1.6,-0.17981 1.6,-2.586022 0,-1.854988 0.66993,-3.457076 1.59387,-3.811626 0.87663,-0.336395 1.32106,-1.053041 0.98763,-1.592549 -0.33343,-0.539506 -0.2837,-2.449454 0.11052,-4.244329 0.61017,-2.778095 1.09017,-3.169686 3.22772,-2.633198 2.48235,0.623028 2.49331,0.587981 0.96227,-3.076307 -2.17341,-5.201686 -2.02704,-6.239433 0.67601,-4.792808 2.81153,1.504689 3.60964,0.746963 2.1284,-2.020746 -0.6342,-1.185011 -1.15309,-3.229792 -1.15309,-4.543958 v -2.389392 l 2.66666,2.505203 2.66667,2.505203 v -3.74149 c 0,-4.962518 0.78568,-5.509066 4.31092,-2.998865 3.8016,2.706974 4.22241,2.65068 4.22241,-0.564849 0,-3.048245 0.55677,-3.187436 4.26667,-1.066666 3.81529,2.181013 4.77909,1.960055 4.95815,-1.13667 0.18465,-3.193777 1.24297,-4.596238 2.29985,-3.047714 0.77608,1.137097 7.14071,5.784385 7.92193,5.784385 0.24783,0 0.23925,-1.440001 -0.0191,-3.200001 -0.47834,-3.25919 1.1905,-4.469273 2.27305,-1.648192 0.77848,2.028704 8.97918,6.197479 10.42893,5.301485 0.61766,-0.381732 0.88098,-1.619607 0.58515,-2.750833 -0.70684,-2.702972 2.00509,-1.91682 9.95201,2.884958 5.73366,3.464454 5.88539,3.494307 6.6922,1.316756 l 0.82554,-2.228066 2.37446,2.225099 c 1.30595,1.223804 6.67415,4.200537 11.92931,6.614965 5.25517,2.414428 11.55314,6.02731 13.99547,8.028628 5.75455,4.71542 10.81395,12.676033 12.45979,19.604583 1.23378,5.193934 1.55209,5.56881 5.58247,6.574441 30.27788,7.554709 48.54079,18.159248 48.54079,28.185674 0,4.160314 -0.39592,4.362084 -4.26666,2.174434 -1.99483,-1.12744 -4.95958,-1.350563 -11.76766,-0.88564 -6.77696,0.4628 -10.63226,0.17636 -15.0975,-1.121728 -12.89684,-3.749213 -30.59225,-1.742839 -41.55491,4.711668 -10.67821,6.28701 -26.59282,13.81177 -29.21144,13.81177 -4.05008,0 -9.39258,4.586 -12.46037,10.69601 -5.79763,11.54694 -6.74198,31.25979 -2.41563,50.42523 4.01464,17.78462 9.58115,35.79033 14.49248,46.87806 5.36049,12.10177 7.98187,20.81059 10.03364,33.33402 1.71265,10.45357 1.99294,34.90054 0.56866,49.6 -0.48658,5.02181 -0.45007,13.82532 0.0818,19.73333 1.00969,11.21475 0.76452,10.55007 11.44317,31.02334 2.47381,4.74282 4.75836,10.50282 5.07677,12.8 l 0.57891,4.17666 -3.37237,-3.73334 c -3.11713,-3.45076 -3.32399,-3.53149 -2.73298,-1.06666 4.07993,17.01565 6.10936,42.7152 4.13791,52.4 -0.71581,3.51637 -0.77664,3.43894 -2.61893,-3.33334 l -1.8861,-6.93333 0.67827,6.4 c 0.37305,3.52 0.63277,7.12 0.57716,8 -0.0556,0.88 -0.0639,2.56 -0.0184,3.73333 0.42692,11.00205 -0.49659,36.19406 -1.41435,38.58128 -1.14853,2.98747 -3.04628,12.26638 -3.56253,17.41872 -0.14695,1.46667 -0.99856,4.10667 -1.89244,5.86667 -0.8939,1.76 -1.94333,4.86757 -2.33208,6.9057 -0.83766,4.3917 -3.72934,11.12367 -10.09186,23.4943 -7.09887,13.8023 -8.02363,15.35537 -10.03934,16.86048 -1.02667,0.7666 -1.86733,1.9666 -1.86814,2.66666 -8.2e-4,0.70008 -1.92015,3.43286 -4.26519,6.07286 -2.34505,2.64 -4.26438,5.15988 -4.2652,5.59974 -8.1e-4,0.43986 -2.64147,3.46093 -5.86814,6.71348 -3.22666,3.25256 -5.86666,6.12279 -5.86666,6.37829 0,0.61907 -7.88559,7.83382 -13.86667,12.687 -2.64,2.14216 -6.20886,5.0658 -7.93079,6.49699 -1.72194,1.43119 -4.65582,3.32583 -6.51973,4.21031 -1.86391,0.88448 -3.97389,2.31299 -4.68885,3.17446 -0.71497,0.86147 -3.54109,2.5843 -6.28028,3.8285 -2.73919,1.24419 -5.70035,2.71127 -6.58035,3.26015 -0.88,0.5489 -2.32,1.29277 -3.2,1.65306 -0.88,0.3603 -3.52,1.53476 -5.86667,2.60992 -2.34666,1.07517 -8.34666,2.67971 -13.33333,3.56565 -4.98667,0.88594 -14.10667,2.56122 -20.26667,3.72284 -6.16,1.16161 -16.48001,3.08381 -22.93334,4.27153 -6.45333,1.18773 -13.39903,2.65174 -15.43489,3.25336 -3.90542,1.1541 -20.20835,0.56608 -29.36511,-1.05913 -13.12187,-2.32899 -16.81476,-3.249 -29.86667,-7.44077 -13.45567,-4.32144 -17.73509,-6.10941 -26.66666,-11.1415 -13.13555,-7.40066 -16.91564,-9.11722 -20.07733,-9.11722 -1.92277,0 -3.95195,0.40892 -4.50929,0.90872 -0.55733,0.49978 -5.33333,1.48996 -10.61333,2.20038 -5.28,0.71042 -10.56,1.70159 -11.73334,2.2026 -1.17333,0.501 -5.97333,1.45577 -10.66666,2.12169 -4.69334,0.66593 -9.73334,1.69499 -11.2,2.28682 -3.49843,1.41169 -6.87052,6.81508 -8.50498,13.62826 -0.72375,3.01689 -2.18501,6.09401 -3.24725,6.83804 -1.06224,0.74402 -2.26641,3.25642 -2.67594,5.58312 -0.40954,2.32671 -1.37161,5.23376 -2.13793,6.46013 -2.7355,4.37767 -3.91024,11.76455 -3.77097,23.712 0.0945,8.10494 -0.61335,16.53982 -2.13409,25.43092 -3.24914,18.99629 -2.59347,50.32915 1.53651,73.42732 3.87334,21.6628 10.36398,53.65492 16.82143,82.91227 4.61181,20.8951 5.75198,24.67454 8.25075,27.34948 1.5947,1.70714 3.74041,4.96878 4.76824,7.24811 1.63035,3.61544 2.57646,4.33689 7.41485,5.65414 7.4727,2.03442 14.00189,1.73402 20.8309,-0.95843 4.83179,-1.905 6.99266,-2.1376 14.4,-1.55002 8.12923,0.64486 12.44848,2.32526 12.44848,4.8431 0,0.49573 -2.82123,0.90134 -6.2694,0.90134 -6.72684,0 -9.32153,1.58095 -8.23152,5.01548 0.55425,1.7464 2.22085,1.91785 18.64272,1.91785 19.78174,0 21.15522,0.40304 23.4094,6.86937 l 1.02102,2.92893 -5.00123,-0.48056 c -4.23968,-0.40738 -5.50723,-0.0548 -8.3241,2.31544 -6.79036,5.71371 -15.13235,7.3651 -23.91403,4.73404 -3.38546,-1.0143 -4.82511,-0.92964 -8.12375,0.47774 -6.8483,2.92186 -11.92126,3.12294 -20.54245,0.81425 -18.21321,-4.87735 -21.40963,-1.43978 -5.89596,6.34079 10.71846,5.37564 12.61137,7.6367 14.57378,17.40829 1.04415,5.19921 0.96079,6.37392 -0.62392,8.79249 l -1.82908,2.79154 -1.77908,-3.49363 c -1.29311,-2.53932 -2.54068,-3.5204 -4.56726,-3.59169 -1.5335,-0.054 -4.76321,-1.40508 -7.17713,-3.00253 -2.41391,-1.59746 -5.71923,-2.91501 -7.34514,-2.92789 -7.19532,-0.0571 -18.3719,-8.43035 -23.1869,-17.37129 -1.14455,-2.12527 -3.45008,-4.43123 -5.12342,-5.12435 -1.67333,-0.69312 -4.20377,-2.78284 -5.62322,-4.64383 -4.58535,-6.0117 -5.9781,-11.91132 -6.93363,-29.37044 -1.14144,-20.85602 -2.7142,-32.77729 -10.68089,-80.95986 -5.94842,-35.97607 -16.59252,-86.02171 -18.92307,-88.97108 -1.71962,-2.17621 -4.56456,-12.0041 -6.61599,-22.85492 -4.59793,-24.32031 -4.32699,-23.44056 -7.05841,-22.91842 -1.36337,0.26063 -3.03228,1.14071 -3.7087,1.95574 -0.67642,0.81503 -2.31972,1.48188 -3.65179,1.48188 -1.33206,0 -2.69822,0.72 -3.03592,1.6 -0.33768,0.88 -1.23614,1.6 -1.99657,1.6 -0.76044,0 -3.17352,0.95986 -5.36239,2.13304 -2.18889,1.17317 -7.94178,2.82605 -12.78421,3.67307 -4.84243,0.84702 -10.96442,2.01561 -13.60442,2.59687 -2.64,0.58125 -6.53111,1.33719 -8.64692,1.67987 -3.83135,0.62053 -3.85181,0.65265 -5.05475,7.93681 -0.66432,4.02257 -2.21976,10.37375 -3.45654,14.11372 -1.23677,3.73997 -2.39486,9.67995 -2.57351,13.19995 -0.18732,3.69048 -1.65193,10.01434 -3.45947,14.93719 -2.68565,7.31439 -3.27362,10.9047 -4.10505,25.06666 -1.44728,24.65174 -0.94576,77.11722 1.11078,116.20183 1.63043,30.98645 2.03715,34.88064 3.88889,37.23475 1.13742,1.446 2.81352,5.19344 3.72465,8.32765 1.03166,3.54876 2.24772,5.69858 3.22344,5.69858 0.86174,0 3.44855,0.96 5.74848,2.13334 4.58869,2.34097 12.5155,2.7625 19.89798,1.05814 3.46992,-0.80109 6.22197,-0.56508 12.6848,1.08784 8.48259,2.16947 11.15055,3.55788 11.15055,5.80269 0,0.88671 -2.24114,1.26109 -7.2,1.20273 -6.99148,-0.0822 -7.2,-0.007 -7.2,2.58193 0,2.5319 0.5121,2.75698 10.13334,4.45371 5.57333,0.98287 12.53333,2.10051 15.46666,2.48365 2.93334,0.38315 6.67597,1.2066 8.31697,1.82988 3.13988,1.19259 6.08303,5.66796 6.08303,9.24987 0,1.97588 -0.20331,2.01698 -2.93333,0.59287 -4.05585,-2.11573 -5.37775,-1.96149 -11.47516,1.33895 -6.76088,3.65956 -14.72405,3.82613 -22.3096,0.46665 -4.50241,-1.99402 -5.77945,-2.15147 -8.95351,-1.10394 -5.58766,1.84409 -14.07368,0.48416 -23.47969,-3.76279 -4.6478,-2.09854 -9.47013,-3.81552 -10.71629,-3.81552 -5.21323,0 -0.83061,5.61355 9.09058,11.64382 6.04524,3.6744 8.24333,7.26128 9.39184,15.3257 1.27206,8.93201 -3.20718,17.28468 -5.35759,9.99053 z m -24.5517,-395.88971 c 7.57472,-1.45826 14.57251,-3.37565 15.55066,-4.26085 0.97814,-0.88522 2.25698,-1.60948 2.84185,-1.60948 1.7591,0 5.36146,-4.55542 6.74806,-8.53333 1.13294,-3.25027 0.80829,-6.27904 -2.50912,-23.40771 -2.09575,-10.82091 -3.67042,-19.81443 -3.49925,-19.98559 0.17117,-0.17117 9.3977,-2.01489 20.50341,-4.09716 19.78501,-3.70961 20.25933,-3.86087 23.52252,-7.5011 1.8317,-2.04334 3.6027,-5.39343 3.93558,-7.44466 0.70159,-4.32337 -4.90945,-34.3402 -7.27392,-38.91259 -1.95255,-3.7758 -6.56059,-7.45119 -9.34198,-7.45119 -1.17092,0 -11.00038,1.72181 -21.84325,3.82623 -10.84287,2.10443 -20.08255,3.42443 -20.53261,2.93334 -0.45006,-0.4911 -2.38374,-9.2929 -4.29707,-19.55956 -3.97057,-21.30563 -6.0604,-25.8854 -12.64685,-27.71492 -5.63728,-1.56587 -8.66842,-1.32015 -24.99436,2.02623 -12.14464,2.48933 -15.41387,3.57228 -18.62162,6.16854 -6.77583,5.48411 -6.87056,6.70119 -2.34966,30.18681 2.20217,11.44 3.90845,20.90756 3.79174,21.03904 -0.11671,0.13147 -9.66028,2.09313 -21.20793,4.35925 -14.38197,2.82233 -21.67413,4.73417 -23.14936,6.06923 -1.18451,1.07197 -2.86066,4.32978 -3.72477,7.23958 -1.4833,4.99481 -1.39549,6.18368 1.57061,21.26638 2.84878,14.48605 3.49384,16.40548 6.91748,20.58361 2.24563,2.74048 5.0318,4.88367 6.8752,5.28854 1.86795,0.41027 11.04015,-0.85147 23.08453,-3.17552 10.99178,-2.12096 20.32534,-3.4694 20.74125,-2.99653 0.4159,0.47286 2.45623,9.78738 4.53406,20.69892 3.40416,17.87661 4.07917,20.14125 6.82357,22.89294 2.7029,2.71008 6.60459,4.07051 13.17902,4.59524 0.88,0.0702 7.79749,-1.06543 15.37221,-2.52369 z m 323.82572,-64.35735 c 8.28062,-4.01888 15.21228,-12.56669 16.51371,-20.36396 0.71562,-4.2876 -1.78396,-18.86737 -3.91694,-22.84695 -1.83162,-3.41732 -9.79881,-9.985 -14.62899,-12.0593 -5.20538,-2.23542 -19.20849,-1.30775 -25.32699,1.67785 -4.81397,2.34904 -10.99173,8.91142 -13.63711,14.48615 -2.69765,5.68489 -1.66208,19.97197 2.00971,27.72657 3.57825,7.55706 12.77134,13.33221 22.98867,14.44163 7.21887,0.78384 8.63059,0.51364 15.99794,-3.06199 z m -68.75559,-39.08764 c 6.60081,-1.26294 9.3644,-2.43114 13.9605,-5.90121 3.15176,-2.37961 5.73048,-4.97224 5.73048,-5.7614 0,-0.78916 0.64189,-1.96755 1.42641,-2.61866 4.09074,-3.39501 4.74734,-18.7859 1.16701,-27.35483 -3.10475,-7.43072 -15.89703,-17.41194 -22.32675,-17.42051 -1.17333,-0.001 -5.97333,0.72557 -10.66667,1.61587 -10.92726,2.07282 -16.36741,5.45871 -20.9686,13.05063 -3.32121,5.47999 -3.56473,6.51856 -3.56473,15.20329 0,6.03497 0.4701,9.79159 1.33333,10.65482 0.73334,0.73333 1.33334,2.15532 1.33334,3.15996 0,1.00465 2.64316,4.491 5.8737,7.74745 5.51179,5.55599 7.16702,6.43171 15.99296,8.46123 1.17334,0.2698 2.21111,0.54624 2.30617,0.61429 0.095,0.0681 3.87634,-0.58486 8.40285,-1.45093 z m 109.10731,-21.49128 c 7.75803,-2.51875 15.26938,-10.80978 17.24172,-19.03144 1.56498,-6.52354 0.90635,-15.22687 -1.60763,-21.24365 -3.47321,-8.31258 -14.83555,-16.65896 -22.67867,-16.65896 -6.53591,0 -16.37556,2.10354 -21.36087,4.56658 -4.98301,2.46189 -10.8473,9.67771 -12.88643,15.85633 -1.39841,4.23724 -0.74164,17.78656 0.94386,19.47206 0.58577,0.58578 1.06503,1.76205 1.06503,2.61398 0,2.31279 6.47674,10.36743 10.13334,12.6021 8.00052,4.88936 17.81444,5.50311 29.14965,1.823 z m -60.02991,-41.447 c 6.86807,-3.47492 11.14339,-7.59429 14.05795,-13.54518 3.64768,-7.44772 3.62041,-10.53851 -0.23984,-27.19299 -0.77088,-3.32583 -5.23793,-8.29582 -11.01014,-12.24979 -4.74971,-3.25355 -5.50113,-3.4247 -15.33797,-3.49346 -6.93759,-0.0485 -10.78365,0.36676 -11.68,1.26104 -0.73503,0.73333 -2.08042,1.35136 -2.98975,1.37338 -0.90933,0.022 -3.38058,1.58203 -5.49166,3.46667 -9.29307,8.29628 -11.73863,16.09005 -9.08111,28.94048 1.99189,9.63178 4.47153,14.20259 10.048,18.52185 9.13097,7.07239 21.30107,8.19179 31.72452,2.918 z"
     style="fill:#000000;fill-opacity:1;stroke-width:1.0666666" />
</svg>
